<svg id="Capa_1" enable-background="new 0 0 512.001 512.001" height="512" viewBox="0 0 512.001 512.001" width="512" xmlns="http://www.w3.org/2000/svg"><g fill="#62d8f9"><path d="m227.903 108.129h67.747c5.69 0 10.302-4.612 10.302-10.302v-10.616c0-5.69-4.612-10.302-10.302-10.302h-67.747c-20.116 0-36.423 16.307-36.423 36.423v124.878c0 20.116 16.307 36.423 36.423 36.423h41.626c20.116 0 36.423-16.307 36.423-36.423v-41.626c0-20.116-16.307-36.423-36.423-36.423h-46.829v-46.829c-.001-2.874 2.329-5.203 5.203-5.203zm46.829 88.455v41.626c0 2.869-2.334 5.203-5.203 5.203h-41.626c-2.869 0-5.203-2.334-5.203-5.203v-46.829h46.829c2.869 0 5.203 2.334 5.203 5.203z"/><path d="m163.382 113.332c0-20.116-16.307-36.423-36.423-36.423h-52.137c-5.69 0-10.302 4.612-10.302 10.302v10.616c0 5.69 4.612 10.302 10.302 10.302h52.137c2.874 0 5.203 2.33 5.203 5.203v41.626c0 2.874-2.33 5.203-5.203 5.203h-31.324c-5.69 0-10.302 4.612-10.302 10.302v10.616c0 5.69 4.612 10.302 10.302 10.302h31.324c2.874 0 5.203 2.33 5.203 5.203v41.626c0 2.874-2.33 5.203-5.203 5.203h-52.137c-5.69 0-10.302 4.612-10.302 10.302v10.616c0 5.69 4.612 10.302 10.302 10.302h52.137c20.116 0 36.423-16.307 36.423-36.423v-41.626c0-5.828-1.38-11.338-3.827-16.226-1.445-2.888-1.445-6.285 0-9.173 2.446-4.888 3.827-10.398 3.827-16.226z"/><path d="m411.057 274.633h-41.626c-20.083 0-36.423-16.339-36.423-36.423v-124.878c0-20.083 16.339-36.423 36.423-36.423h41.626c20.083 0 36.423 16.339 36.423 36.423v124.878c0 20.083-16.339 36.423-36.423 36.423zm-41.626-166.504c-2.869 0-5.203 2.334-5.203 5.203v124.878c0 2.869 2.334 5.203 5.203 5.203h41.626c2.869 0 5.203-2.334 5.203-5.203v-124.878c0-2.869-2.334-5.203-5.203-5.203z"/><circle cx="479.74" cy="50.893" r="24.976"/></g><path d="m512.001 414.08c0-28.737-114.615-52.032-256-52.032s-256.001 23.295-256.001 52.032v-52.032c0-28.737 114.615-52.032 256-52.032s256 23.296 256 52.032v52.032z" fill="#89c627"/><path d="m313.228 431.764-50.683-36.86c-2.724-1.981-6.544-.035-6.544 3.333v15.843c-141.385 0-256-23.296-256-52.032v52.032c0 28.737 114.615 52.032 256 52.032v15.843c0 3.368 3.821 5.313 6.544 3.333l50.683-36.86c5.656-4.115 5.656-12.549 0-16.664z" fill="#b9ea6a"/><path d="m367.347 418.202.002 31.298c0 6.14 5.344 10.92 11.447 10.24 79.374-8.836 133.205-25.969 133.205-45.66v-52.032c0 19.881-54.862 37.155-135.489 45.915-5.219.567-9.165 4.99-9.165 10.239z" fill="#a1e42c"/></svg>