<?xml version="1.0" encoding="iso-8859-1"?>
<!-- Generator: Adobe Illustrator 19.0.0, SVG Export Plug-In . SVG Version: 6.00 Build 0)  -->
<svg version="1.1" id="Capa_1" xmlns="http://www.w3.org/2000/svg" xmlns:xlink="http://www.w3.org/1999/xlink" x="0px" y="0px"
	 viewBox="0 0 512 512" style="enable-background:new 0 0 512 512;" xml:space="preserve">
<path style="fill:#E53935;" d="M80,64h352c44.183,0,80,35.817,80,80v224c0,44.183-35.817,80-80,80H80c-44.183,0-80-35.817-80-80V144
	C0,99.817,35.817,64,80,64z"/>
<path style="fill:#FAFAFA;" d="M328.64,244.064L195.2,177.408c-6.622-3.234-14.612-0.488-17.846,6.134
	c-0.883,1.807-1.345,3.791-1.354,5.802v133.312c0.03,7.37,6.029,13.32,13.398,13.29c2.011-0.008,3.995-0.471,5.802-1.354
	l133.44-66.656c6.592-3.295,9.265-11.31,5.97-17.902C333.319,247.45,331.224,245.355,328.64,244.064L328.64,244.064z"/>
<path d="M432,448H80c-44.183,0-80-35.817-80-80V144c0-44.183,35.817-80,80-80h352c44.183,0,80,35.817,80,80v224
	C512,412.183,476.183,448,432,448z M80,96c-26.51,0-48,21.49-48,48v224c0,26.51,21.49,48,48,48h352c26.51,0,48-21.49,48-48V144
	c0-26.51-21.49-48-48-48H80z"/>
<path d="M176,352c-8.837,0-16-7.163-16-16V176c0-8.837,7.164-16,16.001-15.999c2.488,0,4.943,0.581,7.167,1.695l160,80
	c7.9,3.959,11.094,13.573,7.135,21.473c-1.547,3.086-4.049,5.588-7.135,7.135l-160,80C180.943,351.419,178.489,352,176,352z
	 M192,201.888v108.224L300.224,256L192,201.888z"/>
<g>
</g>
<g>
</g>
<g>
</g>
<g>
</g>
<g>
</g>
<g>
</g>
<g>
</g>
<g>
</g>
<g>
</g>
<g>
</g>
<g>
</g>
<g>
</g>
<g>
</g>
<g>
</g>
<g>
</g>
</svg>
